<?xml version="1.0" standalone="no"?><!DOCTYPE svg PUBLIC "-//W3C//DTD SVG 1.1//EN" "http://www.w3.org/Graphics/SVG/1.1/DTD/svg11.dtd"><svg t="1520843404105" class="icon" style="" viewBox="0 0 1024 1024" version="1.1" xmlns="http://www.w3.org/2000/svg" p-id="1932" xmlns:xlink="http://www.w3.org/1999/xlink" width="38" height="38"><defs><style type="text/css"></style></defs><path d="M571.485477 216.697095c29.742739-23.369295 101.975104-84.979253 218.821577-31.86722 121.095436 55.236515 131.717842 195.452282 125.344398 240.06639-21.244813 193.327801-403.651452 427.020747-403.651452 427.020747C169.958506 626.721992 116.846473 486.506224 108.348548 427.020747c-6.373444-59.485477 6.373444-195.452282 125.344398-240.06639s189.078838 8.497925 218.821577 31.86722c10.622407 8.497925 23.369295 19.120332 31.86722 29.742739 12.746888 14.871369 36.116183 14.871369 50.987552 0C548.116183 237.941909 558.738589 225.195021 571.485477 216.697095zM495.004149 915.651452c10.622407 6.373444 23.369295 6.373444 33.991701 0 59.485477-38.240664 263.435685-172.082988 373.908714-320.79668 129.593361-176.33195 67.983402-316.547718 21.244813-380.282158s-121.095436-114.721992-233.692946-114.721992c-95.60166 2.124481-155.087137 50.987552-172.082988 65.858921C514.124481 169.958506 509.875519 169.958506 507.751037 167.834025c-16.995851-14.871369-78.605809-63.73444-172.082988-65.858921-112.59751-2.124481-186.954357 50.987552-233.692946 114.721992s-108.348548 203.950207 21.244813 380.282158C231.568465 745.692946 435.518672 879.53527 495.004149 915.651452z" p-id="1933" fill="#2e3133"></path></svg>