<?xml version="1.0" standalone="no"?><!DOCTYPE svg PUBLIC "-//W3C//DTD SVG 1.1//EN" "http://www.w3.org/Graphics/SVG/1.1/DTD/svg11.dtd"><svg t="1520842746424" class="icon" style="" viewBox="0 0 1024 1024" version="1.1" xmlns="http://www.w3.org/2000/svg" p-id="1037" xmlns:xlink="http://www.w3.org/1999/xlink" width="38" height="38"><defs><style type="text/css"></style></defs><path d="M1004.051948 970.805195L824.519481 797.922078c79.792208-86.441558 132.987013-199.480519 132.987013-325.818182 0-259.324675-206.12987-472.103896-465.454546-472.103896S19.948052 212.779221 19.948052 472.103896c0 259.324675 212.779221 472.103896 472.103896 472.103896 106.38961 0 206.12987-39.896104 285.922078-99.74026l179.532468 179.532468 46.545454-53.194805zM86.441558 472.103896C86.441558 246.025974 265.974026 66.493506 492.051948 66.493506c219.428571 0 405.61039 179.532468 405.61039 405.61039 0 219.428571-179.532468 405.61039-405.61039 405.61039S86.441558 691.532468 86.441558 472.103896z" p-id="1038" fill="#2e3133"></path></svg>